<svg xmlns="http://www.w3.org/2000/svg" viewBox="0 0 30.77 54.36">
    <defs>
    <style>.cls-1{fill:#403d59;}.cls-2{fill:#6078b9;}.cls-3{fill:#43405b;}</style>
    </defs>
    <g id="Camada_2" data-name="Camada 2"><g id="Camada_1-2" data-name="Camada 1">
    <g id="Camada_2-2" data-name="Camada 2">
    <g id="Camada_1-2-2" data-name="Camada 1-2">
    <path class="cls-1" d="M5.83,36.25a31.6,31.6,0,0,1,.89-9.8c1.35-4.43,4-7.26,9-8.21a13.57,13.57,0,0,1,9,1.08,10.66,10.66,0,0,1,5.65,7.22c.42,1.68.39,1.69-1.36,1.69h-.75c-1.57,0-3.08.43-3.81-1.94-.6-1.94-2.69-2.72-4.86-2.88a7.51,7.51,0,0,0-5.76,1.51,5.84,5.84,0,0,0-2,4c-.53,4.17-.25,8.4-.21,12.57a8,8,0,0,0,1.66,5.26c1.88,2.22,4.42,2.37,7,2a5.57,5.57,0,0,0,4.84-4.15.64.64,0,0,1,.68-.53h4.53c.52,0,.56.17.44.64A12.75,12.75,0,0,1,27.36,51a11.21,11.21,0,0,1-5.78,3,13.63,13.63,0,0,1-8.7-.84A11.15,11.15,0,0,1,6.48,45,35.21,35.21,0,0,1,5.83,36.25Z"/>
    <path class="cls-2" d="M11.81,20.23a2.63,2.63,0,0,1-2.65-2.59v-.18a2.73,2.73,0,0,1,5.45.07,2.58,2.58,0,0,1-2.44,2.72h0Z"/>
    <path class="cls-3" d="M12.15.07C8.52-.09,4.86.09,1.22,0,.2,0,.07.32.07,1.22v16.3Q0,25.85,0,34.17c0,.43-.18,1,.64.93,4.61-.21,9.23.41,13.85-.48a10.13,10.13,0,0,0,5.82-3.31c2.49-2.93,3.33-6.46,3.38-10.26V14.31a19.63,19.63,0,0,0-1.29-7.07A11,11,0,0,0,12.15.07ZM18,23.53a6.35,6.35,0,0,1-6.14,5.81H6.44c-.72,0-.91-.18-.91-.89V6.5c0-.86.26-1.15,1.13-1.12A44,44,0,0,1,13,5.63,5.56,5.56,0,0,1,17.6,9.69a20.77,20.77,0,0,1,.65,5.82C18.25,18.2,18.25,20.86,18,23.53Z"/>
    </g>
    </g>
    </g>
    </g>
</svg>